<svg width="17" height="16" viewBox="0 0 17 16" fill="none" xmlns="http://www.w3.org/2000/svg">
<path d="M8.16547 0.131836L7.46234 0.799805C7.28656 0.975586 7.28656 1.25684 7.46234 1.39746L12.9116 6.84668H0.923279C0.677185 6.84668 0.501404 7.05762 0.501404 7.26855V8.25293C0.501404 8.49902 0.677185 8.6748 0.923279 8.6748H12.9116L7.46234 14.1592C7.28656 14.2998 7.28656 14.5811 7.46234 14.7568L8.16547 15.4248C8.30609 15.6006 8.58734 15.6006 8.76312 15.4248L16.1108 8.07715C16.2866 7.90137 16.2866 7.65527 16.1108 7.47949L8.76312 0.131836C8.58734 -0.0439453 8.30609 -0.0439453 8.16547 0.131836Z" fill="white"/>
</svg>
