<svg width="59" height="58" viewBox="0 0 59 58" fill="none" xmlns="http://www.w3.org/2000/svg">
<g id="Facebook">
<g id="facebook">
<path id="Oval Copy" opacity="0.25" d="M58.4111 29C58.4111 44.7401 45.6512 57.5 29.9111 57.5C14.171 57.5 1.41113 44.7401 1.41113 29C1.41113 13.2599 14.171 0.5 29.9111 0.5C45.6512 0.5 58.4111 13.2599 58.4111 29Z" stroke="#928B8B"/>
<path id="Shape" d="M27.5899 37.8842L27.5635 29.7682H24.1111V26.2899H27.5635V23.971C27.5635 20.8414 29.4871 19.3333 32.258 19.3333C33.5853 19.3333 34.7261 19.4328 35.0585 19.4773V22.7479L33.1367 22.7488C31.6297 22.7488 31.3379 23.4702 31.3379 24.529V26.2899H35.6191L34.4683 29.7682H31.3379V37.8842H27.5899Z" fill="white"/>
</g>
</g>
</svg>
