<svg width="59" height="58" viewBox="0 0 59 58" fill="none" xmlns="http://www.w3.org/2000/svg">
<g id="insta">
<path id="Oval Copy" opacity="0.25" d="M58.3223 29C58.3223 44.7401 45.5624 57.5 29.8223 57.5C14.0822 57.5 1.32227 44.7401 1.32227 29C1.32227 13.2599 14.0822 0.5 29.8223 0.5C45.5624 0.5 58.3223 13.2599 58.3223 29Z" stroke="#928B8B"/>
<g id="16px-logo-instagram">
<path id="Oval" d="M34.163 25.703C34.7183 25.703 35.1684 25.2529 35.1684 24.6977C35.1684 24.1425 34.7183 23.6924 34.163 23.6924C33.6078 23.6924 33.1577 24.1425 33.1577 24.6977C33.1577 25.2529 33.6078 25.703 34.163 25.703Z" fill="white"/>
<path id="Shape" fill-rule="evenodd" clip-rule="evenodd" d="M25.6334 29.0002C25.6334 31.3103 27.5121 33.1891 29.8223 33.1891C32.1324 33.1891 34.0111 31.3103 34.0111 29.0002C34.0111 26.69 32.1324 24.8113 29.8223 24.8113C27.5121 24.8113 25.6334 26.69 25.6334 29.0002ZM27.7278 29.0002C27.7278 27.8452 28.6672 26.9058 29.8223 26.9058C30.9774 26.9058 31.9167 27.8452 31.9167 29.0002C31.9167 30.1553 30.9774 31.0947 29.8223 31.0947C28.6672 31.0947 27.7278 30.1553 27.7278 29.0002Z" fill="white"/>
<path id="Shape_2" fill-rule="evenodd" clip-rule="evenodd" d="M25.6333 37.3779H34.0111C36.1642 37.3779 38.2 35.3421 38.2 33.189V24.8112C38.2 22.6581 36.1642 20.6223 34.0111 20.6223H25.6333C23.4803 20.6223 21.4445 22.6581 21.4445 24.8112V33.189C21.4445 35.3421 23.4803 37.3779 25.6333 37.3779ZM23.5389 24.8114C23.5389 23.8322 24.6542 22.7169 25.6333 22.7169H34.0111C34.9903 22.7169 36.1056 23.8322 36.1056 24.8114V33.1891C36.1056 34.1683 34.9903 35.2836 34.0111 35.2836H25.6333C24.6353 35.2836 23.5389 34.1871 23.5389 33.1891V24.8114Z" fill="white"/>
</g>
</g>
</svg>
