<svg width="58" height="58" viewBox="0 0 58 58" fill="none" xmlns="http://www.w3.org/2000/svg">
<g id="linkedin">
<path id="Oval Copy" opacity="0.1" d="M57.5 29C57.5 44.7401 44.7401 57.5 29 57.5C13.2599 57.5 0.5 44.7401 0.5 29C0.5 13.2599 13.2599 0.5 29 0.5C44.7401 0.5 57.5 13.2599 57.5 29Z" stroke="white"/>
<g id="Linkedin icon">
<g id="linkedin_2">
<path id="Oval" d="M22.7972 24.9723C23.9984 24.9723 24.9722 23.9985 24.9722 22.7973C24.9722 21.5961 23.9984 20.6223 22.7972 20.6223C21.596 20.6223 20.6222 21.5961 20.6222 22.7973C20.6222 23.9985 21.596 24.9723 22.7972 24.9723Z" fill="white"/>
<path id="Shape" d="M24.6098 26.4224H20.9848C20.7847 26.4224 20.6223 26.5848 20.6223 26.7849V37.6599C20.6223 37.86 20.7847 38.0224 20.9848 38.0224H24.6098C24.8099 38.0224 24.9723 37.86 24.9723 37.6599V26.7849C24.9723 26.5848 24.8099 26.4224 24.6098 26.4224Z" fill="white"/>
<path id="Shape_2" d="M35.4101 25.923C33.8607 25.3923 31.9228 25.8585 30.7606 26.6944C30.7208 26.5386 30.5787 26.4226 30.4097 26.4226H26.7847C26.5846 26.4226 26.4222 26.585 26.4222 26.7851V37.6601C26.4222 37.8602 26.5846 38.0226 26.7847 38.0226H30.4097C30.6098 38.0226 30.7722 37.8602 30.7722 37.6601V29.8446C31.358 29.34 32.1128 29.179 32.7305 29.4415C33.3293 29.6945 33.6722 30.3122 33.6722 31.1351V37.6601C33.6722 37.8602 33.8346 38.0226 34.0347 38.0226H37.6597C37.8598 38.0226 38.0222 37.8602 38.0222 37.6601V30.405C37.9809 27.426 36.5795 26.3232 35.4101 25.923Z" fill="white"/>
</g>
</g>
</g>
</svg>
