<svg width="76" height="76" viewBox="0 0 76 76" fill="none" xmlns="http://www.w3.org/2000/svg">
<g opacity="0.3" clip-path="url(#clip0_1_429)">
<path d="M38 15.8335C25.7576 15.8335 15.8334 25.7579 15.8334 38.0001C15.8334 50.2423 25.7576 60.1667 38 60.1667C50.2369 60.1537 60.1535 50.237 60.1666 38.0001C60.1666 25.7577 50.2424 15.8335 38 15.8335ZM38 57.0001C27.5066 57.0001 19 48.4935 19 38.0001C19 27.5068 27.5066 19.0001 38 19.0001C48.4887 19.0114 56.9887 27.5114 57 38.0001C57 48.4935 48.4933 57.0001 38 57.0001Z" fill="#292930"/>
<path d="M72.8334 30.0834H67.0051C66.3388 27.6394 65.3636 25.2903 64.1029 23.093L68.229 18.9669C68.2293 18.9666 68.2296 18.9663 68.2299 18.966C69.4664 17.7291 69.4659 15.7241 68.229 14.4876L61.5109 7.77115C60.2742 6.53496 58.2697 6.53496 57.0332 7.77115L52.9071 11.8973C50.7094 10.6375 48.3605 9.66224 45.9168 8.99502V3.16662C45.9166 1.41773 44.4989 0 42.75 0H33.25C31.5011 0 30.0834 1.41773 30.0834 3.16662V8.99487C27.6397 9.6621 25.2906 10.6373 23.093 11.8971L18.9669 7.771C17.7303 6.53481 15.7258 6.53481 14.4893 7.771L7.771 14.4875C7.7707 14.4878 7.77041 14.4881 7.77011 14.4884C6.53377 15.7253 6.53407 17.7303 7.771 18.9668L11.8971 23.0929C10.6364 25.2902 9.6612 27.6392 8.99487 30.0832H3.16662C1.41773 30.0834 0 31.5011 0 33.25V42.75C0 44.4989 1.41773 45.9166 3.16662 45.9166H8.99487C9.6612 48.3606 10.6364 50.7097 11.8971 52.907L7.771 57.0331C7.7707 57.0334 7.77041 57.0337 7.77011 57.034C6.53377 58.2709 6.53407 60.2759 7.771 61.5124L14.4891 68.2289C15.7258 69.465 17.7303 69.465 18.9667 68.2289L23.0929 64.1027C25.2906 65.3625 27.6395 66.3378 30.0832 67.005V72.8332C30.0832 74.5821 31.501 75.9999 33.2498 75.9999H42.7498C44.4987 75.9999 45.9165 74.5821 45.9165 72.8332V67.005C48.3602 66.3378 50.7092 65.3625 52.9068 64.1027L57.0329 68.2289C58.2696 69.465 60.2741 69.465 61.5106 68.2289L68.2287 61.5124C68.229 61.5121 68.2293 61.5118 68.2296 61.5115C69.4661 60.2745 69.4656 58.2696 68.2287 57.0331L64.1026 52.907C65.3633 50.7097 66.3385 48.3606 67.0048 45.9166H72.8331C74.582 45.9166 75.9997 44.4989 75.9997 42.75V33.25C76 31.5011 74.5823 30.0834 72.8334 30.0834ZM72.8334 42.75H65.7701C65.0306 42.7493 64.3889 43.2606 64.2247 43.9819C63.5541 46.9333 62.3853 49.7487 60.7684 52.307C60.3747 52.933 60.4668 53.7479 60.99 54.2704L65.9901 59.2738L59.272 65.9903L54.2702 60.9902C53.748 60.4677 52.934 60.3758 52.3085 60.7685C49.7496 62.3846 46.9343 63.5534 43.9834 64.2249C43.2621 64.3883 42.7501 65.0291 42.75 65.7687V72.8335H33.25V65.7687C33.2498 65.0291 32.7377 64.3883 32.0166 64.2249C29.0655 63.5534 26.2503 62.3846 23.6915 60.7685C23.4392 60.6102 23.1472 60.5261 22.8491 60.5263C22.4292 60.5264 22.0266 60.6933 21.7298 60.9902L16.728 65.9903L10.0099 59.2721L15.01 54.2704C15.5332 53.748 15.6253 52.933 15.2316 52.307C13.6147 49.7485 12.4457 46.9331 11.7752 43.9819C11.6111 43.2608 10.9695 42.7494 10.2299 42.75H3.16662V33.25H10.2299C10.9694 33.2507 11.6111 32.7394 11.7752 32.0181C12.4459 29.0667 13.6147 26.2513 15.2316 23.693C15.6253 23.067 15.5332 22.2521 15.01 21.7296L10.0099 16.7262L16.728 10.0097L21.7298 15.0099C22.252 15.5324 23.066 15.6242 23.6915 15.2315C26.2501 13.6153 29.0655 12.4469 32.0166 11.7766C32.7383 11.613 33.2506 10.9713 33.25 10.2312V3.16662H42.75V10.2315C42.7494 10.9716 43.2617 11.6133 43.9834 11.7769C46.9346 12.4471 49.7499 13.6154 52.3085 15.2318C52.934 15.6245 53.748 15.5325 54.2702 15.0101L59.272 10.01L65.9901 16.7282L60.99 21.7299C60.4668 22.2523 60.3747 23.0673 60.7684 23.6933C62.3853 26.2518 63.5543 29.0672 64.2247 32.0184C64.3889 32.7395 65.0305 33.2509 65.7701 33.2503H72.8334V42.75Z" fill="#292930"/>
<path d="M45.7504 37.2921L39.417 24.6255C39.2767 24.3902 39.08 24.1936 38.8447 24.0533C38.0622 23.5868 37.0494 23.8428 36.5827 24.6255L30.2493 37.2921C30.1398 37.512 30.0828 37.7542 30.0831 37.9999V58.5833H33.25V38.3735L38 28.8735L42.75 38.3735V58.5831H45.9166V37.9999C45.9169 37.7542 45.8599 37.512 45.7504 37.2921Z" fill="#292930"/>
<path d="M40.0473 36.8807C39.2666 37.6565 38.8899 38.0001 38 38.0001C37.1101 38.0001 36.7286 37.6565 35.9528 36.8807C34.895 35.6008 33.327 34.8519 31.6666 34.8335V38.0001C32.5565 38.0001 32.9332 38.3437 33.7139 39.1195C34.7716 40.3995 36.3396 41.1483 38 41.1667C39.6604 41.1483 41.2284 40.3995 42.2861 39.1195C43.0668 38.3436 43.4435 38.0001 44.3334 38.0001V34.8335C42.673 34.8519 41.105 35.6008 40.0473 36.8807Z" fill="#292930"/>
<path d="M39.5832 39.5835H36.4166V58.5835H39.5832V39.5835Z" fill="#292930"/>
<path d="M41.1668 28.5H34.8334V31.6666H41.1668V28.5Z" fill="#292930"/>
</g>
<defs>
<clipPath id="clip0_1_429">
<rect width="76" height="76" fill="white"/>
</clipPath>
</defs>
</svg>
