<svg width="8" height="87" viewBox="0 0 8 87" fill="none" xmlns="http://www.w3.org/2000/svg">
<path d="M4.424 9.084C3.408 9.084 2.568 8.848 1.904 8.376C1.248 7.896 0.892 7.196 0.836 6.276H3.668C3.708 6.764 3.924 7.008 4.316 7.008C4.46 7.008 4.58 6.976 4.676 6.912C4.78 6.84 4.832 6.732 4.832 6.588C4.832 6.388 4.724 6.228 4.508 6.108C4.292 5.98 3.956 5.836 3.5 5.676C2.956 5.484 2.504 5.296 2.144 5.112C1.792 4.928 1.488 4.66 1.232 4.308C0.976 3.956 0.852 3.504 0.86 2.952C0.86 2.4 1 1.932 1.28 1.548C1.568 1.156 1.956 0.86 2.444 0.659999C2.94 0.46 3.496 0.36 4.112 0.36C5.152 0.36 5.976 0.6 6.584 1.08C7.2 1.56 7.524 2.236 7.556 3.108H4.688C4.68 2.868 4.62 2.696 4.508 2.592C4.396 2.488 4.26 2.436 4.1 2.436C3.988 2.436 3.896 2.476 3.824 2.556C3.752 2.628 3.716 2.732 3.716 2.868C3.716 3.06 3.82 3.22 4.028 3.348C4.244 3.468 4.584 3.616 5.048 3.792C5.584 3.992 6.024 4.184 6.368 4.368C6.72 4.552 7.024 4.808 7.28 5.136C7.536 5.464 7.664 5.876 7.664 6.372C7.664 6.892 7.536 7.36 7.28 7.776C7.024 8.184 6.652 8.504 6.164 8.736C5.676 8.968 5.096 9.084 4.424 9.084ZM7.58544 32.732V35H6.57744C4.72144 35 3.79344 34.076 3.79344 32.228V30.452H2.95344V28.232H3.79344V26.6H6.45744V28.232H7.56144V30.452H6.45744V32.276C6.45744 32.436 6.49344 32.552 6.56544 32.624C6.64544 32.696 6.77344 32.732 6.94944 32.732H7.58544ZM0.08375 57.616C0.08375 56.904 0.20375 56.288 0.44375 55.768C0.69175 55.24 1.02775 54.84 1.45175 54.568C1.87575 54.288 2.35175 54.148 2.87975 54.148C3.31975 54.148 3.69975 54.24 4.01975 54.424C4.33975 54.6 4.58375 54.844 4.75175 55.156V54.232H7.40375V61H4.75175V60.076C4.58375 60.388 4.33975 60.636 4.01975 60.82C3.69975 60.996 3.31975 61.084 2.87975 61.084C2.35175 61.084 1.87575 60.948 1.45175 60.676C1.02775 60.396 0.69175 59.996 0.44375 59.476C0.20375 58.948 0.08375 58.328 0.08375 57.616ZM4.75175 57.616C4.75175 57.256 4.65975 56.976 4.47575 56.776C4.29175 56.576 4.05575 56.476 3.76775 56.476C3.47975 56.476 3.24375 56.576 3.05975 56.776C2.87575 56.976 2.78375 57.256 2.78375 57.616C2.78375 57.976 2.87575 58.256 3.05975 58.456C3.24375 58.656 3.47975 58.756 3.76775 58.756C4.05575 58.756 4.29175 58.656 4.47575 58.456C4.65975 58.256 4.75175 57.976 4.75175 57.616ZM5.66244 81.48C5.93444 81.088 6.26644 80.776 6.65844 80.544C7.05044 80.304 7.45844 80.184 7.88244 80.184V83.028H7.12644C6.62244 83.028 6.25044 83.116 6.01044 83.292C5.77844 83.468 5.66244 83.78 5.66244 84.228V87H2.99844V80.232H5.66244V81.48Z" fill="#FFDC60"/>
</svg>
