<svg width="59" height="58" viewBox="0 0 59 58" fill="none" xmlns="http://www.w3.org/2000/svg">
<g id="Youtube">
<g id="twitter">
<path id="Oval Copy" opacity="0.25" d="M58.2334 29C58.2334 44.7401 45.4735 57.5 29.7334 57.5C13.9933 57.5 1.2334 44.7401 1.2334 29C1.2334 13.2599 13.9933 0.5 29.7334 0.5C45.4735 0.5 58.2334 13.2599 58.2334 29Z" stroke="#928B8B"/>
</g>
<g id="bxl-youtube">
<path id="Shape" fill-rule="evenodd" clip-rule="evenodd" d="M38.4538 22.3533C39.3369 22.587 40.0324 23.2721 40.2694 24.1402C40.7093 25.7247 40.6887 29.0284 40.6887 29.0284C40.6887 29.0284 40.6856 32.3138 40.2591 33.8973C40.019 34.7644 39.3204 35.4484 38.4384 35.6811C36.8248 36.096 30.3694 36.0889 30.3694 36.0889C30.3694 36.0889 23.9316 36.0818 22.3016 35.6467C21.4175 35.413 20.722 34.728 20.485 33.8609C20.0625 32.2925 20.0667 28.9899 20.0667 28.9899C20.0667 28.9899 20.0708 25.7035 20.4963 24.119C20.7354 23.2518 21.4505 22.5516 22.316 22.3199C23.9306 21.9041 30.3849 21.9111 30.3849 21.9111C30.3849 21.9111 36.8402 21.9182 38.4538 22.3533ZM28.3251 25.9641L28.32 32.035L33.6903 29.0046L28.3251 25.9641Z" fill="white"/>
</g>
</g>
</svg>
